{
    "asset" : {
        "generator" : "Khronos glTF Blender I/O v1.5.17",
        "version" : "2.0"
    },
    "scene" : 0,
    "scenes" : [
        {
            "name" : "Scene",
            "nodes" : [
                3,
                4,
                5,
                6,
                7,
                8,
                9,
                10,
                11,
                12,
                13,
                14
            ]
        }
    ],
    "nodes" : [
        {
            "name" : "Cube",
            "rotation" : [
                0,
                0.7071068286895752,
                -0.7071067094802856,
                3.0908616110991716e-08
            ],
            "scale" : [
                -368.94952392578125,
                -731.6363525390625,
                -25.976097106933594
            ],
            "translation" : [
                -61.023704528808594,
                -0.5557101964950562,
                156.0901641845703
            ]
        },
        {
            "children" : [
                0
            ],
            "name" : "RootNode"
        },
        {
            "children" : [
                1
            ],
            "name" : "dd12f1d0399348aab05d4e554860e7c0.fbx",
            "rotation" : [
                0.7071068286895752,
                0,
                0,
                0.7071068286895752
            ],
            "scale" : [
                0.009999999776482582,
                0.009999999776482582,
                0.009999999776482582
            ]
        },
        {
            "children" : [
                2
            ],
            "name" : "Sketchfab_model",
            "rotation" : [
                -0.7071068286895752,
                0,
                0,
                0.7071068286895752
            ]
        },
        {
            "name" : "Camera",
            "rotation" : [
                0.483536034822464,
                0.33687159419059753,
                -0.20870360732078552,
                0.7804827094078064
            ],
            "translation" : [
                7.358891487121582,
                4.958309173583984,
                6.925790786743164
            ]
        },
        {
            "name" : "BezierCircle",
            "scale" : [
                3.2697696685791016,
                3.2697696685791016,
                3.2697696685791016
            ]
        },
        {
            "name" : "BezierCircle.001",
            "scale" : [
                2.8440873622894287,
                2.8440873622894287,
                2.8440873622894287
            ],
            "translation" : [
                0,
                -0.523611843585968,
                0
            ]
        },
        {
            "name" : "BezierCircle.002",
            "scale" : [
                2.3195409774780273,
                2.3195409774780273,
                2.3195409774780273
            ],
            "translation" : [
                0,
                -1.0372400283813477,
                0
            ]
        },
        {
            "name" : "BezierCircle.003",
            "scale" : [
                1.391459584236145,
                1.391459584236145,
                1.391459584236145
            ],
            "translation" : [
                0,
                -1.0678985118865967,
                0
            ]
        },
        {
            "mesh" : 0,
            "name" : "Cube.005",
            "scale" : [
                0.12917041778564453,
                0.12917041778564453,
                0.12917041778564453
            ],
            "translation" : [
                0,
                -0.25678378343582153,
                1.1818476915359497
            ]
        },
        {
            "name" : "BezierCircle.006",
            "rotation" : [
                1,
                0,
                0,
                -1.6292068494294654e-07
            ],
            "scale" : [
                2.8440873622894287,
                2.8440873622894287,
                2.8440873622894287
            ],
            "translation" : [
                0,
                4.266392230987549,
                0
            ]
        },
        {
            "name" : "BezierCircle.005",
            "rotation" : [
                1,
                0,
                0,
                -1.6292068494294654e-07
            ],
            "scale" : [
                2.3195409774780273,
                2.3195409774780273,
                2.3195409774780273
            ],
            "translation" : [
                0,
                4.780020236968994,
                0
            ]
        },
        {
            "name" : "BezierCircle.004",
            "rotation" : [
                1,
                0,
                0,
                -1.6292068494294654e-07
            ],
            "scale" : [
                1.391459584236145,
                1.391459584236145,
                1.391459584236145
            ],
            "translation" : [
                0,
                4.810678958892822,
                0
            ]
        },
        {
            "mesh" : 1,
            "name" : "Cube.001",
            "rotation" : [
                0,
                -0.08366620540618896,
                0,
                0.996493935585022
            ],
            "scale" : [
                0.10327384620904922,
                0.10327384620904922,
                0.10327384620904922
            ],
            "translation" : [
                -0.002573447534814477,
                2.7220284938812256,
                1.2097296714782715
            ]
        },
        {
            "mesh" : 2,
            "name" : "Cube.002",
            "rotation" : [
                0,
                -0.08366620540618896,
                0,
                0.996493935585022
            ],
            "scale" : [
                0.06809283792972565,
                0.06809283047914505,
                0.06809283792972565
            ],
            "translation" : [
                -0.002573447534814477,
                2.7220284938812256,
                1.2097296714782715
            ]
        }
    ],
    "materials" : [
        {
            "doubleSided" : true,
            "emissiveFactor" : [
                1,
                1,
                1
            ],
            "emissiveTexture" : {
                "index" : 0
            },
            "name" : "Material.074_17",
            "pbrMetallicRoughness" : {
                "baseColorFactor" : [
                    1,
                    1,
                    1,
                    0.6610169410705566
                ],
                "baseColorTexture" : {
                    "index" : 1
                },
                "metallicFactor" : 0,
                "roughnessFactor" : 0.9209039211273193
            }
        },
        {
            "doubleSided" : true,
            "emissiveFactor" : [
                1,
                1,
                1
            ],
            "emissiveTexture" : {
                "index" : 2
            },
            "name" : "Material.074_17.001",
            "pbrMetallicRoughness" : {
                "baseColorFactor" : [
                    1,
                    1,
                    1,
                    0.6610169410705566
                ],
                "baseColorTexture" : {
                    "index" : 3
                },
                "metallicFactor" : 0,
                "roughnessFactor" : 0.9209039211273193
            }
        },
        {
            "doubleSided" : true,
            "emissiveFactor" : [
                1,
                1,
                1
            ],
            "emissiveTexture" : {
                "index" : 4
            },
            "name" : "Material.074_17.002",
            "pbrMetallicRoughness" : {
                "baseColorFactor" : [
                    1,
                    1,
                    1,
                    0.6610169410705566
                ],
                "baseColorTexture" : {
                    "index" : 5
                },
                "metallicFactor" : 0,
                "roughnessFactor" : 0.9209039211273193
            }
        }
    ],
    "meshes" : [
        {
            "name" : "Cube.005",
            "primitives" : [
                {
                    "attributes" : {
                        "POSITION" : 0,
                        "NORMAL" : 1,
                        "TEXCOORD_0" : 2
                    },
                    "indices" : 3,
                    "material" : 0
                }
            ]
        },
        {
            "name" : "Cube.009",
            "primitives" : [
                {
                    "attributes" : {
                        "POSITION" : 4,
                        "NORMAL" : 5,
                        "TEXCOORD_0" : 6
                    },
                    "indices" : 7,
                    "material" : 1
                }
            ]
        },
        {
            "name" : "Cube.010",
            "primitives" : [
                {
                    "attributes" : {
                        "POSITION" : 8,
                        "NORMAL" : 9,
                        "TEXCOORD_0" : 10
                    },
                    "indices" : 7,
                    "material" : 2
                }
            ]
        }
    ],
    "textures" : [
        {
            "sampler" : 0,
            "source" : 0
        },
        {
            "sampler" : 0,
            "source" : 1
        },
        {
            "sampler" : 0,
            "source" : 0
        },
        {
            "sampler" : 0,
            "source" : 1
        },
        {
            "sampler" : 0,
            "source" : 0
        },
        {
            "sampler" : 0,
            "source" : 1
        }
    ],
    "images" : [
        {
            "bufferView" : 4,
            "mimeType" : "image/png",
            "name" : "Material.074_17_baseColor"
        },
        {
            "bufferView" : 5,
            "mimeType" : "image/png",
            "name" : "Material.074_11_baseColor"
        }
    ],
    "accessors" : [
        {
            "bufferView" : 0,
            "componentType" : 5126,
            "count" : 14112,
            "max" : [
                37.588661193847656,
                47.01487731933594,
                37.605926513671875
            ],
            "min" : [
                -37.553741455078125,
                -1.000000238418579,
                -37.571266174316406
            ],
            "type" : "VEC3"
        },
        {
            "bufferView" : 1,
            "componentType" : 5126,
            "count" : 14112,
            "type" : "VEC3"
        },
        {
            "bufferView" : 2,
            "componentType" : 5126,
            "count" : 14112,
            "type" : "VEC2"
        },
        {
            "bufferView" : 3,
            "componentType" : 5123,
            "count" : 19404,
            "type" : "SCALAR"
        },
        {
            "bufferView" : 6,
            "componentType" : 5126,
            "count" : 14112,
            "max" : [
                37.57231140136719,
                23.95377540588379,
                37.389774322509766
            ],
            "min" : [
                -37.570091247558594,
                -24.06110191345215,
                -37.787418365478516
            ],
            "type" : "VEC3"
        },
        {
            "bufferView" : 7,
            "componentType" : 5126,
            "count" : 14112,
            "type" : "VEC3"
        },
        {
            "bufferView" : 8,
            "componentType" : 5126,
            "count" : 14112,
            "type" : "VEC2"
        },
        {
            "bufferView" : 9,
            "componentType" : 5123,
            "count" : 19404,
            "type" : "SCALAR"
        },
        {
            "bufferView" : 10,
            "componentType" : 5126,
            "count" : 14112,
            "max" : [
                37.57231140136719,
                23.95377540588379,
                37.389774322509766
            ],
            "min" : [
                -37.570091247558594,
                -24.06110191345215,
                -37.787418365478516
            ],
            "type" : "VEC3"
        },
        {
            "bufferView" : 11,
            "componentType" : 5126,
            "count" : 14112,
            "type" : "VEC3"
        },
        {
            "bufferView" : 12,
            "componentType" : 5126,
            "count" : 14112,
            "type" : "VEC2"
        }
    ],
    "bufferViews" : [
        {
            "buffer" : 0,
            "byteLength" : 169344,
            "byteOffset" : 0
        },
        {
            "buffer" : 0,
            "byteLength" : 169344,
            "byteOffset" : 169344
        },
        {
            "buffer" : 0,
            "byteLength" : 112896,
            "byteOffset" : 338688
        },
        {
            "buffer" : 0,
            "byteLength" : 38808,
            "byteOffset" : 451584
        },
        {
            "buffer" : 0,
            "byteLength" : 310722,
            "byteOffset" : 490392
        },
        {
            "buffer" : 0,
            "byteLength" : 912,
            "byteOffset" : 801116
        },
        {
            "buffer" : 0,
            "byteLength" : 169344,
            "byteOffset" : 802028
        },
        {
            "buffer" : 0,
            "byteLength" : 169344,
            "byteOffset" : 971372
        },
        {
            "buffer" : 0,
            "byteLength" : 112896,
            "byteOffset" : 1140716
        },
        {
            "buffer" : 0,
            "byteLength" : 38808,
            "byteOffset" : 1253612
        },
        {
            "buffer" : 0,
            "byteLength" : 169344,
            "byteOffset" : 1292420
        },
        {
            "buffer" : 0,
            "byteLength" : 169344,
            "byteOffset" : 1461764
        },
        {
            "buffer" : 0,
            "byteLength" : 112896,
            "byteOffset" : 1631108
        }
    ],
    "samplers" : [
        {
            "magFilter" : 9729,
            "minFilter" : 9987
        }
    ],
    "buffers" : [
        {
            "byteLength" : 1744004,
            "uri" : "data:application/octet-stream;base64,"
        }
    ]
}
