{
    "asset" : {
        "generator" : "Khronos glTF Blender I/O v1.5.17",
        "version" : "2.0"
    },
    "scene" : 0,
    "scenes" : [
        {
            "name" : "Scene",
            "nodes" : [
                7
            ]
        }
    ],
    "nodes" : [
        {
            "name" : "Clouds_1",
            "rotation" : [
                0.1908702850341797,
                0.2025245875120163,
                0.0603143610060215,
                0.9586002826690674
            ]
        },
        {
            "mesh" : 0,
            "name" : "Cube.008",
            "rotation" : [
                0.2211308628320694,
                -0.4660242199897766,
                0.0019705533050000668,
                0.856690526008606
            ],
            "scale" : [
                0.48617085814476013,
                0.011465020477771759,
                0.3055444657802582
            ],
            "translation" : [
                -0.09189803153276443,
                0.871941328048706,
                0.10935863852500916
            ]
        },
        {
            "children" : [
                1
            ],
            "name" : "Empty",
            "rotation" : [
                -0.19922329485416412,
                -0.2070641964673996,
                -0.09409722685813904,
                0.9531947374343872
            ]
        },
        {
            "mesh" : 1,
            "name" : "Sphere",
            "rotation" : [
                -0.20003505051136017,
                -0.19875675439834595,
                -0.09235899150371552,
                0.9549615979194641
            ],
            "scale" : [
                0.8558211326599121,
                0.8558209538459778,
                0.8558211326599121
            ],
            "translation" : [
                0.03616293892264366,
                -0.0018460610881447792,
                -0.07890257239341736
            ]
        },
        {
            "children" : [
                2,
                3
            ],
            "name" : "Planet_2",
            "rotation" : [
                0.1908702850341797,
                0.2025245875120163,
                0.0603143610060215,
                0.9586002826690674
            ]
        },
        {
            "children" : [
                0,
                4
            ],
            "name" : "GLTF_SceneRootNode",
            "rotation" : [
                0.7071068286895752,
                0,
                0,
                0.7071068286895752
            ]
        },
        {
            "children" : [
                5
            ],
            "name" : "root"
        },
        {
            "children" : [
                6
            ],
            "name" : "Sketchfab_model",
            "rotation" : [
                -0.6956252455711365,
                -0.022898241877555847,
                0.02219405211508274,
                0.7176967263221741
            ],
            "scale" : [
                0.7809138894081116,
                0.7809140086174011,
                0.7809140086174011
            ],
            "translation" : [
                0.0038108527660369873,
                -0.28399938344955444,
                0.057730913162231445
            ]
        }
    ],
    "animations" : [
        {
            "channels" : [
                {
                    "sampler" : 0,
                    "target" : {
                        "node" : 0,
                        "path" : "rotation"
                    }
                },
                {
                    "sampler" : 1,
                    "target" : {
                        "node" : 0,
                        "path" : "scale"
                    }
                },
                {
                    "sampler" : 2,
                    "target" : {
                        "node" : 4,
                        "path" : "rotation"
                    }
                },
                {
                    "sampler" : 3,
                    "target" : {
                        "node" : 4,
                        "path" : "scale"
                    }
                }
            ],
            "name" : "Animation",
            "samplers" : [
                {
                    "input" : 20,
                    "interpolation" : "LINEAR",
                    "output" : 21
                },
                {
                    "input" : 20,
                    "interpolation" : "LINEAR",
                    "output" : 22
                },
                {
                    "input" : 20,
                    "interpolation" : "LINEAR",
                    "output" : 23
                },
                {
                    "input" : 20,
                    "interpolation" : "LINEAR",
                    "output" : 24
                }
            ]
        }
    ],
    "materials" : [
        {
            "doubleSided" : true,
            "name" : "Material.009",
            "pbrMetallicRoughness" : {
                "baseColorFactor" : [
                    0.13286630809307098,
                    0.13286630809307098,
                    0.13286630809307098,
                    1
                ],
                "roughnessFactor" : 0.5
            }
        },
        {
            "doubleSided" : true,
            "name" : "Material.010",
            "pbrMetallicRoughness" : {
                "baseColorFactor" : [
                    0,
                    0,
                    0,
                    1
                ],
                "metallicFactor" : 0.3274853825569153,
                "roughnessFactor" : 0.451977401971817
            }
        },
        {
            "doubleSided" : true,
            "name" : "Material.011",
            "pbrMetallicRoughness" : {
                "baseColorFactor" : [
                    0.10653761029243469,
                    0.10653761029243469,
                    0.10653761029243469,
                    1
                ],
                "metallicFactor" : 0.5847952961921692,
                "roughnessFactor" : 0.7573099136352539
            }
        },
        {
            "doubleSided" : true,
            "name" : "Material.012",
            "pbrMetallicRoughness" : {
                "baseColorFactor" : [
                    0.00719407107681036,
                    0.00719407107681036,
                    0.00719407107681036,
                    1
                ],
                "metallicFactor" : 0,
                "roughnessFactor" : 0.523391842842102
            }
        },
        {
            "doubleSided" : true,
            "name" : "Material.014",
            "pbrMetallicRoughness" : {
                "baseColorTexture" : {
                    "index" : 0
                },
                "metallicFactor" : 0,
                "roughnessFactor" : 0.6384180784225464
            }
        }
    ],
    "meshes" : [
        {
            "name" : "Cube.001",
            "primitives" : [
                {
                    "attributes" : {
                        "POSITION" : 0,
                        "NORMAL" : 1,
                        "TEXCOORD_0" : 2
                    },
                    "indices" : 3,
                    "material" : 0
                },
                {
                    "attributes" : {
                        "POSITION" : 4,
                        "NORMAL" : 5,
                        "TEXCOORD_0" : 6
                    },
                    "indices" : 7,
                    "material" : 1
                },
                {
                    "attributes" : {
                        "POSITION" : 8,
                        "NORMAL" : 9,
                        "TEXCOORD_0" : 10
                    },
                    "indices" : 11,
                    "material" : 2
                },
                {
                    "attributes" : {
                        "POSITION" : 12,
                        "NORMAL" : 13,
                        "TEXCOORD_0" : 14
                    },
                    "indices" : 15,
                    "material" : 3
                }
            ]
        },
        {
            "name" : "Sphere",
            "primitives" : [
                {
                    "attributes" : {
                        "POSITION" : 16,
                        "NORMAL" : 17,
                        "TEXCOORD_0" : 18
                    },
                    "indices" : 19,
                    "material" : 4
                }
            ]
        }
    ],
    "textures" : [
        {
            "sampler" : 0,
            "source" : 0
        }
    ],
    "images" : [
        {
            "bufferView" : 20,
            "mimeType" : "image/jpeg",
            "name" : "8081_earthbump2k"
        }
    ],
    "accessors" : [
        {
            "bufferView" : 0,
            "componentType" : 5126,
            "count" : 8691,
            "max" : [
                1.0000001192092896,
                54.439308166503906,
                1.0000003576278687
            ],
            "min" : [
                -1.0000001192092896,
                -1,
                -1.6492301225662231
            ],
            "type" : "VEC3"
        },
        {
            "bufferView" : 1,
            "componentType" : 5126,
            "count" : 8691,
            "type" : "VEC3"
        },
        {
            "bufferView" : 2,
            "componentType" : 5126,
            "count" : 8691,
            "type" : "VEC2"
        },
        {
            "bufferView" : 3,
            "componentType" : 5123,
            "count" : 24024,
            "type" : "SCALAR"
        },
        {
            "bufferView" : 4,
            "componentType" : 5126,
            "count" : 96,
            "max" : [
                1,
                54.439308166503906,
                -0.725845217704773
            ],
            "min" : [
                -1,
                1,
                -1.5891571044921875
            ],
            "type" : "VEC3"
        },
        {
            "bufferView" : 5,
            "componentType" : 5126,
            "count" : 96,
            "type" : "VEC3"
        },
        {
            "bufferView" : 6,
            "componentType" : 5126,
            "count" : 96,
            "type" : "VEC2"
        },
        {
            "bufferView" : 7,
            "componentType" : 5123,
            "count" : 276,
            "type" : "SCALAR"
        },
        {
            "bufferView" : 8,
            "componentType" : 5126,
            "count" : 4,
            "max" : [
                -0.833145022392273,
                1,
                1.0000003576278687
            ],
            "min" : [
                -0.9311622381210327,
                1,
                0.9373962879180908
            ],
            "type" : "VEC3"
        },
        {
            "bufferView" : 9,
            "componentType" : 5126,
            "count" : 4,
            "type" : "VEC3"
        },
        {
            "bufferView" : 10,
            "componentType" : 5126,
            "count" : 4,
            "type" : "VEC2"
        },
        {
            "bufferView" : 11,
            "componentType" : 5123,
            "count" : 6,
            "type" : "SCALAR"
        },
        {
            "bufferView" : 12,
            "componentType" : 5126,
            "count" : 1140,
            "max" : [
                0.9223741888999939,
                0.5790556073188782,
                0.3052157759666443
            ],
            "min" : [
                -0.9223741888999939,
                0.5790556073188782,
                -0.6119065880775452
            ],
            "type" : "VEC3"
        },
        {
            "bufferView" : 13,
            "componentType" : 5126,
            "count" : 1140,
            "type" : "VEC3"
        },
        {
            "bufferView" : 14,
            "componentType" : 5126,
            "count" : 1140,
            "type" : "VEC2"
        },
        {
            "bufferView" : 15,
            "componentType" : 5123,
            "count" : 2850,
            "type" : "SCALAR"
        },
        {
            "bufferView" : 16,
            "componentType" : 5126,
            "count" : 559,
            "max" : [
                1.000000238418579,
                1,
                1.0000003576278687
            ],
            "min" : [
                -0.9999998211860657,
                -1,
                -1
            ],
            "type" : "VEC3"
        },
        {
            "bufferView" : 17,
            "componentType" : 5126,
            "count" : 559,
            "type" : "VEC3"
        },
        {
            "bufferView" : 18,
            "componentType" : 5126,
            "count" : 559,
            "type" : "VEC2"
        },
        {
            "bufferView" : 19,
            "componentType" : 5123,
            "count" : 2880,
            "type" : "SCALAR"
        },
        {
            "bufferView" : 21,
            "componentType" : 5126,
            "count" : 361,
            "max" : [
                15
            ],
            "min" : [
                0
            ],
            "type" : "SCALAR"
        },
        {
            "bufferView" : 22,
            "componentType" : 5126,
            "count" : 361,
            "type" : "VEC4"
        },
        {
            "bufferView" : 23,
            "componentType" : 5126,
            "count" : 361,
            "type" : "VEC3"
        },
        {
            "bufferView" : 24,
            "componentType" : 5126,
            "count" : 361,
            "type" : "VEC4"
        },
        {
            "bufferView" : 25,
            "componentType" : 5126,
            "count" : 361,
            "type" : "VEC3"
        }
    ],
    "bufferViews" : [
        {
            "buffer" : 0,
            "byteLength" : 104292,
            "byteOffset" : 0
        },
        {
            "buffer" : 0,
            "byteLength" : 104292,
            "byteOffset" : 104292
        },
        {
            "buffer" : 0,
            "byteLength" : 69528,
            "byteOffset" : 208584
        },
        {
            "buffer" : 0,
            "byteLength" : 48048,
            "byteOffset" : 278112
        },
        {
            "buffer" : 0,
            "byteLength" : 1152,
            "byteOffset" : 326160
        },
        {
            "buffer" : 0,
            "byteLength" : 1152,
            "byteOffset" : 327312
        },
        {
            "buffer" : 0,
            "byteLength" : 768,
            "byteOffset" : 328464
        },
        {
            "buffer" : 0,
            "byteLength" : 552,
            "byteOffset" : 329232
        },
        {
            "buffer" : 0,
            "byteLength" : 48,
            "byteOffset" : 329784
        },
        {
            "buffer" : 0,
            "byteLength" : 48,
            "byteOffset" : 329832
        },
        {
            "buffer" : 0,
            "byteLength" : 32,
            "byteOffset" : 329880
        },
        {
            "buffer" : 0,
            "byteLength" : 12,
            "byteOffset" : 329912
        },
        {
            "buffer" : 0,
            "byteLength" : 13680,
            "byteOffset" : 329924
        },
        {
            "buffer" : 0,
            "byteLength" : 13680,
            "byteOffset" : 343604
        },
        {
            "buffer" : 0,
            "byteLength" : 9120,
            "byteOffset" : 357284
        },
        {
            "buffer" : 0,
            "byteLength" : 5700,
            "byteOffset" : 366404
        },
        {
            "buffer" : 0,
            "byteLength" : 6708,
            "byteOffset" : 372104
        },
        {
            "buffer" : 0,
            "byteLength" : 6708,
            "byteOffset" : 378812
        },
        {
            "buffer" : 0,
            "byteLength" : 4472,
            "byteOffset" : 385520
        },
        {
            "buffer" : 0,
            "byteLength" : 5760,
            "byteOffset" : 389992
        },
        {
            "buffer" : 0,
            "byteLength" : 285369,
            "byteOffset" : 395752
        },
        {
            "buffer" : 0,
            "byteLength" : 1444,
            "byteOffset" : 681124
        },
        {
            "buffer" : 0,
            "byteLength" : 5776,
            "byteOffset" : 682568
        },
        {
            "buffer" : 0,
            "byteLength" : 4332,
            "byteOffset" : 688344
        },
        {
            "buffer" : 0,
            "byteLength" : 5776,
            "byteOffset" : 692676
        },
        {
            "buffer" : 0,
            "byteLength" : 4332,
            "byteOffset" : 698452
        }
    ],
    "samplers" : [
        {
            "magFilter" : 9729,
            "minFilter" : 9987
        }
    ],
    "buffers" : [
        {
            "byteLength" : 702784,
            "uri" : "data:application/octet-stream;base64,"
        }
    ]
}
